<svg xmlns="http://www.w3.org/2000/svg" viewBox="0 0 200 200" width="200" height="200" fill="#000000">
  <!-- Head Outline -->
  <path d="M100 10C75 10 50 30 50 60C50 90 75 120 75 140C75 160 55 170 55 180C55 190 85 190 85 180C85 170 115 170 115 180C115 190 145 190 145 180C145 170 125 160 125 140C125 120 150 90 150 60C150 30 125 10 100 10Z"/>
  
  <!-- Eye Sockets -->
  <circle cx="85" cy="60" r="10" fill="#ffffff" />
  <circle cx="115" cy="60" r="10" fill="#ffffff" />
  
  <!-- Pupils -->
  <circle cx="88" cy="60" r="5" fill="#000000" />
  <circle cx="112" cy="60" r="5" fill="#000000" />
  
  <!-- Nose -->
  <path d="M100 70C95 75 95 80 100 85C105 80 105 75 100 70Z" fill="#000000" />
  
  <!-- Mouth -->
  <path d="M85 110C90 115 110 115 115 110C115 120 85 120 85 110Z" fill="#000000" />
</svg>
