<svg
  xmlns="http://www.w3.org/2000/svg"
  viewBox="0 0 200 200"
  width="200"
  height="200"
>
  <style>
    .flame1,
    .flame2,
    .flame3 {
      transform-origin: center;
    }
    .flame1 {
      fill: #ff6a00;
      animation: flicker1 1.5s infinite ease-in-out;
    }
    .flame2 {
      fill: #ffa700;
      animation: flicker2 2s infinite ease-in-out;
    }
    .flame3 {
      fill: #ffe79b;
      animation: flicker3 1.7s infinite ease-in-out;
    }
    .log {
      fill: #6f4e37;
    }

    @keyframes flicker1 {
      0% {
        transform: scale(1) translate(0, 0);
      }
      50% {
        transform: scale(1.05) translate(-1px, -3px);
      }
      100% {
        transform: scale(1) translate(0, 0);
      }
    }
    @keyframes flicker2 {
      0% {
        transform: scale(1) translate(0, 0);
      }
      50% {
        transform: scale(1.1) translate(2px, 2px);
      }
      100% {
        transform: scale(1) translate(0, 0);
      }
    }
    @keyframes flicker3 {
      0% {
        transform: scale(1) translate(0, 0);
        opacity: 1;
      }
      50% {
        transform: scale(0.9) translate(-2px, 1px);
        opacity: 0.9;
      }
      100% {
        transform: scale(1) translate(0, 0);
        opacity: 1;
      }
    }
  </style>

  <!-- Logs -->
  <rect x="50" y="150" width="100" height="10" rx="5" class="log" />
  <rect x="40" y="160" width="120" height="10" rx="5" class="log" />

  <!-- Outer Flame -->
  <path
    d="M100 20 C80 70, 50 100, 80 140 Q100 110, 120 140 C150 100, 120 70, 100 20"
    class="flame1"
  />
  <!-- Middle Flame -->
  <path
    d="M100 40 C90 80, 70 110, 90 140 Q100 120, 110 140 C130 110, 110 80, 100 40"
    class="flame2"
  />
  <!-- Inner Flame -->
  <path
    d="M100 60 C95 90, 85 120, 100 140 Q105 125, 110 140 C115 120, 105 90, 100 60"
    class="flame3"
  />
</svg>
